<?xml version="1.0" standalone="no"?>
<!DOCTYPE svg PUBLIC "-//W3C//DTD SVG 20010904//EN"
 "http://www.w3.org/TR/2001/REC-SVG-20010904/DTD/svg10.dtd">
<svg version="1.0" xmlns="http://www.w3.org/2000/svg"
 width="62.000000pt" height="62.000000pt" viewBox="0 0 62.000000 62.000000"
 preserveAspectRatio="xMidYMid meet">

<g transform="translate(0.000000,62.000000) scale(0.100000,-0.100000)"
fill="#000000" stroke="none">
<path d="M30 591 c-6 -12 -10 -107 -10 -240 0 -186 2 -222 16 -235 13 -13 42
-16 158 -16 97 0 146 4 154 12 17 17 17 469 0 486 -8 8 -58 12 -160 12 -135 0
-148 -2 -158 -19z m309 -5 c8 -9 11 -81 9 -237 l-3 -224 -152 -3 -153 -3 0
234 c0 129 3 237 7 240 3 4 68 7 143 7 105 0 140 -3 149 -14z"/>
<path d="M71 539 c-14 -42 -14 -44 6 -28 13 11 17 11 20 1 3 -6 8 -10 13 -7 9
6 -10 65 -21 65 -4 0 -12 -14 -18 -31z"/>
<path d="M138 409 c-27 -15 -22 -48 13 -80 17 -16 35 -29 39 -29 20 0 70 54
70 75 0 33 -23 49 -50 35 -16 -9 -25 -9 -33 -1 -13 13 -17 13 -39 0z"/>
<path d="M271 200 c0 -8 6 -26 14 -40 l13 -25 12 29 c6 16 9 34 6 40 -3 7 -5
6 -5 -1 -1 -7 -7 -13 -15 -13 -8 0 -17 6 -19 13 -4 8 -6 7 -6 -3z"/>
<path d="M385 514 c11 -8 58 -36 104 -62 46 -26 86 -52 88 -59 4 -11 -176
-336 -200 -360 -9 -9 -26 -4 -71 23 -32 19 -60 33 -63 31 -8 -9 118 -79 131
-74 21 8 217 358 214 380 -2 13 -37 39 -106 78 -101 58 -137 74 -97 43z"/>
<path d="M376 483 c-3 -3 -6 -88 -6 -188 0 -194 -1 -200 -50 -207 -25 -4 -24
-4 9 -22 18 -10 37 -14 42 -9 4 4 49 80 99 168 88 156 90 160 70 175 -40 30
-157 89 -164 83z"/>
</g>
</svg>
